<svg xmlns="http://www.w3.org/2000/svg" viewBox="0 0 320 320" role="img" aria-labelledby="title">
  <title id="title">まちるだいすけ</title>
  <defs>
    <linearGradient id="body" x1="0" y1="0" x2="0" y2="1">
      <stop offset="0" stop-color="#ffd866"/>
      <stop offset="1" stop-color="#f7a928"/>
    </linearGradient>
  </defs>
  <path fill="#176b52" d="M160 54c-12-27-38-38-61-30 5 27 26 44 55 43-17-27-10-50 7-63 18 18 22 41 5 63 28 1 51-14 57-40-24-11-51 0-63 27z"/>
  <path fill="url(#body)" stroke="#8b5e16" stroke-width="8" d="M87 124c0-49 33-76 73-76s73 27 73 76v74c0 55-30 92-73 92s-73-37-73-92z"/>
  <circle cx="130" cy="151" r="10" fill="#2a2a2a"/>
  <circle cx="190" cy="151" r="10" fill="#2a2a2a"/>
  <circle cx="127" cy="147" r="3" fill="#fff"/>
  <circle cx="187" cy="147" r="3" fill="#fff"/>
  <path fill="none" stroke="#8b5e16" stroke-linecap="round" stroke-width="8" d="M137 188q23 20 46 0"/>
  <ellipse cx="112" cy="178" rx="16" ry="9" fill="#ef8275" opacity=".65"/>
  <ellipse cx="208" cy="178" rx="16" ry="9" fill="#ef8275" opacity=".65"/>
  <path fill="#176b52" d="M97 246q63 34 126 0v34q-63 38-126 0z"/>
  <text x="160" y="276" text-anchor="middle" fill="#fff" font-family="sans-serif" font-size="22" font-weight="700">MEMURO</text>
</svg>
