<svg xmlns="http://www.w3.org/2000/svg" viewBox="0 0 360 340" role="img" aria-labelledby="title">
  <title id="title">手を上げる まちるだいすけ</title>
  <defs>
    <linearGradient id="body" x1="0" y1="0" x2="0" y2="1">
      <stop offset="0" stop-color="#ffd866"/>
      <stop offset="1" stop-color="#f7a928"/>
    </linearGradient>
  </defs>
  <path fill="#176b52" d="M176 59c-12-27-38-38-61-30 5 27 26 44 55 43-17-27-10-50 7-63 18 18 22 41 5 63 28 1 51-14 57-40-24-11-51 0-63 27z"/>
  <path fill="none" stroke="#f7a928" stroke-linecap="round" stroke-width="28" d="M238 157q52-47 55-105"/>
  <circle cx="297" cy="42" r="22" fill="#ffd866" stroke="#8b5e16" stroke-width="7"/>
  <path fill="url(#body)" stroke="#8b5e16" stroke-width="8" d="M103 129c0-49 33-76 73-76s73 27 73 76v74c0 55-30 92-73 92s-73-37-73-92z"/>
  <circle cx="146" cy="156" r="10" fill="#2a2a2a"/>
  <circle cx="206" cy="156" r="10" fill="#2a2a2a"/>
  <circle cx="143" cy="152" r="3" fill="#fff"/>
  <circle cx="203" cy="152" r="3" fill="#fff"/>
  <path fill="none" stroke="#8b5e16" stroke-linecap="round" stroke-width="8" d="M153 193q23 20 46 0"/>
  <ellipse cx="128" cy="183" rx="16" ry="9" fill="#ef8275" opacity=".65"/>
  <ellipse cx="224" cy="183" rx="16" ry="9" fill="#ef8275" opacity=".65"/>
  <path fill="#176b52" d="M113 251q63 34 126 0v34q-63 38-126 0z"/>
  <text x="176" y="281" text-anchor="middle" fill="#fff" font-family="sans-serif" font-size="22" font-weight="700">MEMURO</text>
  <path fill="#176b52" d="M302 81l15 10-16 6zm20-24 18-1-9 16zM273 23l-2-18 15 11z"/>
</svg>
